#!OML:ASF H:\Male1\Project 1\Capture day 1\Session 1\Male1.ASF
:FULLY-SPECIFIED
:DEGREES
514
root 7.83965 12.163 5.2276 184.606 5.81133 -181.975
lowerback 35.1126 -0.373005 -3.44981
upperback 9.65431 1.18139 -3.9619
thorax -6.98088 1.92752 -2.93348
lowerneck -3.10151 5.75499 11.396
upperneck -16.009 7.4915 -14.012
head -3.19286 4.35068 -6.35216
rclavicle 1.11319e-014 5.84427e-014
rhumerus 18.2158 6.68426 -70.9614
rradius 133.443
rwrist -13.213
rhand -37.5689 34.3894
rfingers 7.12502
rthumb -10.6234 4.67797
lclavicle 1.11319e-014 5.84427e-014
lhumerus 21.7306 -0.306475 73.2664
lradius 133.667
lwrist 9.79191
lhand -39.2043 -17.4224
lfingers 7.12502
lthumb -12.2006 12.2018
rfemur -57.1369 9.75459 14.1222
rtibia 90.8985
rfoot -32.0228 -35.78
rtoes -28.4871
lfemur -55.4016 -7.26556 -17.7912
ltibia 89.0683
lfoot -32.322 23.4675
ltoes -24.3499
515
root 7.87876 12.0216 5.24454 184.927 4.56136 -181.187
lowerback 35.6566 -0.726832 -3.10039
upperback 9.53786 0.874601 -3.38055
thorax -7.19279 1.77404 -2.42948
lowerneck -2.96469 5.67491 11.6161
upperneck -16.3322 7.38941 -14.1621
head -3.30802 4.31504 -6.45939
rclavicle 3.45885e-014 9.54166e-015
rhumerus 18.5543 5.98834 -70.4443
rradius 133.606
rwrist -13.3053
rhand -37.5499 34.5291
rfingers 7.12502
rthumb -10.6052 4.81673
lclavicle 3.45885e-014 9.54166e-015
lhumerus 22.2973 -0.465792 73.2975
lradius 133.807
lwrist 9.72087
lhand -39.4618 -17.832
lfingers 7.12502
lthumb -12.449 11.7773
rfemur -58.1309 9.57755 15.0478
rtibia 92.512
rfoot -32.9639 -36.1983
rtoes -27.4988
lfemur -57.3716 -7.67919 -16.8029
ltibia 91.1456
lfoot -32.5352 23.3943
ltoes -24.2503
516
root 7.92257 11.8887 5.26199 185.241 2.99571 -180.14
lowerback 36.1456 -1.18651 -2.55282
upperback 9.51086 0.540961 -2.60959
thorax -7.41559 1.60389 -1.79106
lowerneck -2.79333 5.56066 11.857
upperneck -16.6649 7.25086 -14.231
head -3.4413 4.25564 -6.54757
rclavicle -5.1684e-015 -2.78299e-015
rhumerus 18.7875 5.29715 -69.9159
rradius 133.77
rwrist -13.382
rhand -37.6045 34.762
rfingers 7.12502
rthumb -10.6578 5.05228
lclavicle -5.1684e-015 -2.78299e-015
lhumerus 22.9456 -0.725766 73.5845
lradius 133.872
lwrist 9.67095
lhand -39.5868 -18.3355
lfingers 7.12502
lthumb -12.5694 11.2664
rfemur -58.9498 9.16977 16.2838
rtibia 93.9445
rfoot -34.0862 -36.4341
rtoes -26.1152
lfemur -59.392 -8.35954 -15.4602
ltibia 93.1189
lfoot -32.7032 23.2415
ltoes -24.0585
517
root 7.96675 11.7648 5.27925 185.536 1.3206 -178.988
lowerback 36.6302 -1.67941 -1.90385
upperback 9.47354 0.232222 -1.75619
thorax -7.64378 1.44771 -1.12401
lowerneck -2.62235 5.41418 12.0657
upperneck -16.9502 7.08108 -14.1591
head -3.57475 4.171 -6.58418
rclavicle 1.98785e-015 7.95139e-016
rhumerus 18.8984 4.63435 -69.4238
rradius 133.946
rwrist -13.4636
rhand -37.7207 35.0299
rfingers 7.12502
rthumb -10.7699 5.32597
lclavicle 1.98785e-015 7.95139e-016
lhumerus 23.6541 -1.07559 74.008
lradius 133.818
lwrist 9.59233
lhand -39.4039 -18.9424
lfingers 7.12502
lthumb -12.3931 10.6702
rfemur -59.6982 8.62946 17.6553
rtibia 95.2335
rfoot -35.2281 -36.5764
rtoes -24.5469
lfemur -61.4047 -9.22115 -13.9288
ltibia 94.9441
lfoot -32.8356 23.1056
ltoes -23.881
518
root 8.00706 11.6501 5.29609 185.818 -0.243205 -177.894
lowerback 37.0573 1.31874 1.35099
upperback 9.46306 -1.16321 -0.420773
thorax -7.84445 -1.8598 -0.529142
lowerneck -2.48002 5.24089 12.2084
upperneck -17.1473 6.88545 -13.9431
head -3.69166 4.06332 -6.55853
rclavicle -7.55382e-015 -1.07344e-014
rhumerus 18.8701 4.0068 -69.0171
rradius 134.153
rwrist -13.5334
rhand -37.8686 35.2885
rfingers 7.12502
rthumb -10.9125 5.59206
lclavicle -7.55382e-015 -1.07344e-014
lhumerus 24.3893 -1.49789 74.4829
lradius 133.623
lwrist 9.39582
lhand -38.8126 -19.5253
lfingers 7.12502
lthumb -11.8229 10.1209
rfemur -60.4772 8.08009 18.9714
rtibia 96.4176
rfoot -36.2468 -36.7126
rtoes -22.9974
lfemur -63.3448 -10.1585 -12.3955
ltibia 96.588
lfoot -32.956 23.0568
ltoes -23.7354
519
root 8.04013 11.5444 5.31319 186.102 -1.50606 -176.994
lowerback 37.4283 0.980392 1.955
upperback 9.34455 -1.25867 0.240032
thorax -8.08623 -1.90538 -0.0985411
lowerneck -2.39959 5.04598 12.2782
upperneck -17.2511 6.66663 -13.6244
head -3.78162 3.93771 -6.48076
rclavicle -1.23246e-014 -1.66979e-014
rhumerus 18.6967 3.3669 -68.7239
rradius 134.413
rwrist -13.56
rhand -38.017 35.5277
rfingers 7.12502
rthumb -11.0557 5.83886
lclavicle -1.23246e-014 -1.66979e-014
lhumerus 25.1281 -1.98839 74.8958
lradius 133.276
lwrist 9.01269
lhand -37.9419 -20.0034
lfingers 7.12502
lthumb -10.9832 9.68926
rfemur -61.3484 7.62858 20.0687
rtibia 97.5308
rfoot -37.0807 -36.8728
rtoes -21.5949
lfemur -65.1367 -11.0573 -11.0359
ltibia 98.0326
lfoot -33.0798 23.1538
ltoes -23.6608
520
root 8.0639 11.4473 5.33115 186.397 -2.33007 -176.386
lowerback 37.7413 0.841514 2.42238
upperback 9.25502 -1.18655 0.681575
thorax -8.27775 -1.87532 0.107086
lowerneck -2.39849 4.8419 12.297
upperneck -17.3016 6.43765 -13.2692
head -3.84691 3.80699 -6.37687
rclavicle -1.15295e-014 1.51076e-014
rhumerus 18.3993 2.65181 -68.5593
rradius 134.733
rwrist -13.5181
rhand -38.1294 35.7931
rfingers 7.12502
rthumb -11.1641 6.11012
lclavicle -1.15295e-014 1.51076e-014
lhumerus 25.8202 -2.52555 75.0114
lradius 132.752
lwrist 8.42313
lhand -37.0242 -20.5011
lfingers 7.12502
lthumb -10.0979 9.2366
rfemur -62.3285 7.34485 20.825
rtibia 98.5969
rfoot -37.7308 -37.0223
rtoes -20.3758
lfemur -66.7027 -11.7939 -10.003
ltibia 99.2772
lfoot -33.2126 23.4175
ltoes -23.7062
521
root 8.07758 11.3587 5.35037 186.702 -2.65457 -176.127
lowerback 38.0099 0.921633 2.69013
upperback 9.21174 -0.954886 0.867904
thorax -8.40642 -1.77211 0.082446
lowerneck -2.45913 4.64766 12.2864
upperneck -17.3547 6.22136 -12.9438
head -3.89974 3.68883 -6.27511
rclavicle -5.1684e-015 -5.36719e-015
rhumerus 18.0236 1.85423 -68.5353
rradius 135.091
rwrist -13.3978
rhand -38.2056 36.1174
rfingers 7.12502
rthumb -11.2376 6.4384
lclavicle -5.1684e-015 -5.36719e-015
lhumerus 26.4393 -3.02243 74.7936
lradius 132.095
lwrist 7.64061
lhand -36.3086 -21.0512
lfingers 7.12502
lthumb -9.40761 8.71881
rfemur -63.4043 7.2449 21.1565
rtibia 99.6281
rfoot -38.2553 -37.0623
rtoes -19.2493
lfemur -67.9885 -12.2748 -9.40951
ltibia 100.331
lfoot -33.3663 23.7902
ltoes -23.801
522
root 8.08163 11.278 5.37052 187.016 -2.4952 -176.213
lowerback 38.2346 1.19078 2.74486
upperback 9.22163 -0.610679 0.792907
thorax -8.46444 -1.61633 -0.155679
lowerneck -2.53739 6.17694 12.1926
upperneck -17.1304 5.77094 -13.0863
head -3.80305 2.17306 -6.19059
rclavicle -3.57812e-015 -3.18055e-015
rhumerus 17.6193 1.02094 -68.6661
rradius 135.449
rwrist -13.2166
rhand -38.2932 36.4877
rfingers 7.12502
rthumb -11.322 6.81334
lclavicle -3.57812e-015 -3.18055e-015
lhumerus 26.9457 -3.38267 74.2259
lradius 131.374
lwrist 6.72675
lhand -35.9354 -21.7513
lfingers 7.12502
lthumb -9.04746 8.03467
rfemur -64.553 7.29881 21.0576
rtibia 100.621
rfoot -38.6901 -36.9191
rtoes -18.1877
lfemur -68.9892 -12.447 -9.28208
ltibia 101.213
lfoot -33.5355 24.1959
ltoes -23.8897
523
root 8.07805 11.2058 5.39024 187.309 -1.92701 -176.58
lowerback 38.4335 1.5922 2.60747
upperback 9.27859 -0.218203 0.484226
thorax -8.46323 -1.43855 -0.563289
lowerneck -2.55143 6.10855 12.1917
upperneck -17.3266 5.66414 -12.9559
head -3.87979 2.10443 -6.15574
rclavicle 1.33186e-014 1.09332e-014
rhumerus 17.2251 0.217829 -68.9624
rradius 135.749
rwrist -12.9974
rhand -38.4287 36.8812
rfingers 7.12502
rthumb -11.4527 7.21406
lclavicle 1.33186e-014 1.09332e-014
lhumerus 27.277 -3.52966 73.3367
lradius 130.681
lwrist 5.75013
lhand -35.9286 -22.6379
lfingers 7.12502
lthumb -9.04095 7.14834
rfemur -65.7103 7.46267 20.6085
rtibia 101.551
rfoot -38.9965 -36.6309
rtoes -17.3611
lfemur -69.7041 -12.3063 -9.55845
ltibia 101.943
lfoot -33.7278 24.5429
ltoes -23.9121
524
root 8.06973 11.1429 5.40774 187.561 -1.0793 -177.115
lowerback 38.6047 2.0477 2.34329
upperback 9.36476 0.156015 -0.00382652
thorax -8.42057 -1.27007 -1.08979
lowerneck -2.45453 6.10581 12.2391
upperneck -17.6065 5.64612 -12.9284
head -3.98196 2.08373 -6.16755
rclavicle -5.1684e-015 -5.36719e-015
rhumerus 16.864 -0.503487 -69.4296
rradius 135.937
rwrist -12.7682
rhand -38.6041 37.249
rfingers 7.12502
rthumb -11.6219 7.59126
lclavicle -5.1684e-015 -5.36719e-015
lhumerus 27.4002 -3.4187 72.3224
lradius 130.119
lwrist 4.80805
lhand -36.1582 -23.5157
lfingers 7.12502
lthumb -9.26242 6.26085
rfemur -66.8161 7.6952 19.9517
rtibia 102.383
rfoot -39.1165 -36.3181
rtoes -17.0152
lfemur -70.1727 -11.8904 -10.0997
ltibia 102.536
lfoot -33.958 24.7454
ltoes -23.8158
525
root 8.06013 11.091 5.42121 187.761 -0.110684 -177.687
lowerback 38.7126 -1.06038 -0.80881
upperback 9.37358 1.67876 -1.13253
thorax -8.46463 2.18261 -1.65247
lowerneck -2.20213 6.16446 12.3124
upperneck -17.9553 5.7251 -12.97
head -4.11419 2.11792 -6.21288
rclavicle 7.15625e-015 -4.77083e-015
rhumerus 16.5474 -1.06195 -70.0424
rradius 135.983
rwrist -12.562
rhand -38.7809 37.5148
rfingers 7.12502
rthumb -11.7924 7.86675
lclavicle 7.15625e-015 -4.77083e-015
lhumerus 27.2066 -3.01903 71.3208
lradius 129.765
lwrist 4.05404
lhand -36.4961 -24.3292
lfingers 7.12502
lthumb -9.58848 5.43258
rfemur -67.7999 7.9718 19.2508
rtibia 103.08
rfoot -39.0738 -36.0666
rtoes -17.2084
lfemur -70.4432 -11.2674 -10.7403
ltibia 103.002
lfoot -34.2173 24.7866
ltoes -23.6452
526
root 8.05267 11.0519 5.42937 187.908 0.815902 -178.178
lowerback 38.8046 -0.784734 -1.20396
upperback 9.38787 1.82668 -1.69477
thorax -8.46242 2.26883 -2.10565
lowerneck -1.77512 6.28237 12.312
upperneck -18.3493 5.90823 -13.0301
head -4.2775 2.21623 -6.25955
rclavicle 1.27222e-014 3.97569e-016
rhumerus 16.2942 -1.34882 -70.717
rradius 135.888
rwrist -12.3994
rhand -38.9246 37.62
rfingers 7.12502
rthumb -11.9309 7.97994
lclavicle 1.27222e-014 3.97569e-016
lhumerus 26.5734 -2.29594 70.4589
lradius 129.651
lwrist 3.59304
lhand -36.9165 -24.978
lfingers 7.12502
lthumb -9.9941 4.76477
rfemur -68.5925 8.27245 18.65
rtibia 103.608
rfoot -38.9215 -35.9288
rtoes -17.874
lfemur -70.5666 -10.5425 -11.3208
ltibia 103.343
lfoot -34.4921 24.673
ltoes -23.4177
527
root 8.04968 11.027 5.43162 188.012 1.55743 -178.5
lowerback 38.8455 -0.644303 -1.54594
upperback 9.38693 1.82584 -2.14212
thorax -8.46581 2.27971 -2.40485
lowerneck -1.2442 6.42135 12.2452
upperneck -18.74 6.13945 -13.0745
head -4.45469 2.34723 -6.29497
rclavicle 1.19271e-014 -1.05356e-014
rhumerus 16.0578 -1.43126 -71.3671
rradius 135.7
rwrist -12.2731
rhand -38.9982 37.5638
rfingers 7.12502
rthumb -12.002 7.92795
lclavicle 1.19271e-014 -1.05356e-014
lhumerus 25.5499 -1.37504 69.8249
lradius 129.733
lwrist 3.46676
lhand -37.3828 -25.3075
lfingers 7.12502
lthumb -10.4439 4.41313
rfemur -69.1385 8.55489 18.2599
rtibia 103.941
rfoot -38.7025 -35.9242
rtoes -18.908
lfemur -70.5942 -9.83878 -11.7147
ltibia 103.56
lfoot -34.7483 24.4437
ltoes -23.1818
528
root 8.05213 11.0178 5.42788 188.078 2.02779 -178.617
lowerback 38.8184 -0.63772 -1.80311
upperback 9.39107 1.69975 -2.41819
thorax -8.44866 2.22568 -2.51374
lowerneck -0.673097 6.55932 12.0911
upperneck -19.1277 6.38131 -13.0382
head -4.64484 2.48548 -6.2931
rclavicle -7.95139e-016 2.0276e-014
rhumerus 15.8015 -1.39462 -71.9017
rradius 135.48
rwrist -12.2022
rhand -38.9547 37.4177
rfingers 7.12502
rthumb -11.96 7.7794
lclavicle -7.95139e-016 2.0276e-014
lhumerus 24.196 -0.391614 69.3029
lradius 129.914
lwrist 3.65677
lhand -38.055 -25.2258
lfingers 7.12502
lthumb -11.0923 4.46105
rfemur -69.3919 8.75679 18.132
rtibia 104.061
rfoot -38.4598 -36.0116
rtoes -20.1529
lfemur -70.5414 -9.25673 -11.8702
ltibia 103.641
lfoot -34.9402 24.17
ltoes -23.0257
